<svg viewBox="0 0 800 800" xml:space="preserve" xmlns="http://www.w3.org/2000/svg"><path d="M154.7 704h480c65.1 0 117.3-52.3 117.3-117.3v-384c0-18.1-13.9-32-32-32H554.7V160c0-53.3-42.7-96-96-96h-128c-53.3 0-96 42.7-96 96v10.7H69.3c-18.1 0-32 13.9-32 32v384c0 65 52.3 117.3 117.4 117.3zm144-544c0-18.1 13.9-32 32-32h128c18.1 0 32 13.9 32 32v10.7h-192V160zm-197.4 74.7H688V320c0 22.4-13.9 42.7-35.2 50.1l-240 85.3c-11.7 4.3-24.5 4.3-35.2 0l-240-85.3c-21.3-7.5-35.2-27.7-35.2-50.1v-85.3h-1.1zm0 189.8c4.3 2.1 9.6 4.3 13.9 6.4l240 85.3c12.8 4.3 25.6 6.4 39.5 6.4 13.9 0 26.7-2.1 39.5-6.4l240-85.3c5.3-2.1 9.6-4.3 13.9-6.4v162.1c0 29.9-23.5 53.3-53.3 53.3h-480c-29.9 0-53.3-23.5-53.3-53.3V424.5z" fill="#ffffff" class="fill-000000"></path></svg>