<svg viewBox="0 0 846.66 846.66" xml:space="preserve" xmlns="http://www.w3.org/2000/svg" shape-rendering="geometricPrecision" text-rendering="geometricPrecision" image-rendering="optimizeQuality" fill-rule="evenodd" clip-rule="evenodd"><path d="M31.33 513.64h118.34c11.39 0 20.63 9.24 20.63 20.63v214.49c0 11.39-9.24 20.63-20.63 20.63H31.33c-11.39 0-20.63-9.24-20.63-20.63V534.27c0-11.39 9.24-20.63 20.63-20.63zM696.99 77.27h118.34c11.39 0 20.63 9.24 20.63 20.63v650.86c0 11.39-9.24 20.63-20.63 20.63H696.99c-11.39 0-20.63-9.24-20.63-20.63V97.9c0-11.39 9.24-20.63 20.63-20.63zm97.71 41.26h-77.08v609.6h77.08v-609.6zM475.1 206.7h118.34c11.39 0 20.63 9.24 20.63 20.63v521.43c0 11.39-9.24 20.63-20.63 20.63H475.1c-11.39 0-20.63-9.24-20.63-20.63V227.33c0-11.39 9.24-20.63 20.63-20.63zm97.71 41.26h-77.08v480.17h77.08V247.96zM253.22 362.02h118.34c11.39 0 20.63 9.24 20.63 20.63v366.11c0 11.39-9.24 20.63-20.63 20.63H253.22c-11.4 0-20.63-9.24-20.63-20.63V382.65c0-11.39 9.23-20.63 20.63-20.63zm97.71 41.26h-77.09v324.85h77.09V403.28zM129.04 554.9H51.96v173.23h77.08V554.9z" fill="#ffffff" fill-rule="nonzero" class="fill-000000"></path></svg>