<svg width="71" height="71" viewBox="0 0 71 71" fill="none" xmlns="http://www.w3.org/2000/svg"><g clip-path="url(#clip0_4359_164428)"><path fill-rule="evenodd" clip-rule="evenodd" d="M11.9953 31.0833C10.1161 31.4827 8.91648 33.3299 9.31591 35.2091L12.1443 48.5156L12.9321 52.222L12.0815 52.4028C10.2023 52.8023 9.00271 54.6495 9.40214 56.5287L10.8314 63.2528L11.5719 66.7364C11.9713 68.6156 13.8185 69.8152 15.6977 69.4158L66.7364 58.5671C68.6156 58.1677 69.8152 56.3205 69.4157 54.4413L67.246 44.2336C66.8466 42.3544 64.9994 41.1548 63.1202 41.5542L62.2696 41.735L58.6533 24.7221C58.2539 22.8429 56.4067 21.6433 54.5275 22.0428L11.9953 31.0833Z" fill="white"></path><path d="M16.0908 64.2941L64.2941 54.0482" stroke="#020D1E" stroke-width="3.69601" stroke-linecap="round" stroke-linejoin="round"></path><path d="M11.3288 30.0395L30.4588 13.378L54.7118 20.8181" fill="#3ADBA9"></path><path d="M9.61534 28.0721C8.71886 28.8529 8.4636 30.141 8.99456 31.2047C9.52552 32.2683 10.7084 32.8386 11.8713 32.5914L55.2542 23.3701C56.417 23.1229 57.2657 22.1209 57.3182 20.9332C57.3706 19.7455 56.6135 18.6726 55.4769 18.3239L31.224 10.8838C30.3622 10.6194 29.425 10.8186 28.7453 11.4106L9.61534 28.0721Z" stroke="white" stroke-width="5.2179" stroke-linecap="round" stroke-linejoin="round"></path><path d="M11.3288 30.0395L30.4588 13.378L54.7118 20.8181L11.3288 30.0395Z" stroke="#020D1E" stroke-width="3.69601" stroke-linecap="round" stroke-linejoin="round"></path><path d="M15.2759 36.7577L19.3743 56.039" stroke="#020D1E" stroke-width="3.69601" stroke-linecap="round" stroke-linejoin="round"></path><path d="M44.1978 30.6102L48.2962 49.8915" stroke="#020D1E" stroke-width="3.69601" stroke-linecap="round" stroke-linejoin="round"></path><path d="M53.8385 28.561L57.9369 47.8423" stroke="#020D1E" stroke-width="3.69601" stroke-linecap="round" stroke-linejoin="round"></path><path d="M24.9165 34.7085L29.0149 53.9898" stroke="#020D1E" stroke-width="3.69601" stroke-linecap="round" stroke-linejoin="round"></path><path d="M34.5572 32.6593L38.6556 51.9406" stroke="#020D1E" stroke-width="3.69601" stroke-linecap="round" stroke-linejoin="round"></path><path d="M16.9641 56.5513L60.347 47.3299" stroke="#020D1E" stroke-width="3.69601" stroke-linecap="round" stroke-linejoin="round"></path></g><defs><clipPath id="clip0_4359_164428"><rect width="59.1361" height="59.1361" fill="white" transform="translate(0 12.295) rotate(-12)"></rect></clipPath></defs></svg>