<svg width="64" height="66" viewBox="0 0 64 66" fill="none" xmlns="http://www.w3.org/2000/svg"><g filter="url(#filter0_d_4278_144566)"><path d="M29.5089 19.7168C30.7591 19.4412 31.8219 18.6117 32.2538 17.4066C32.904 15.5924 33.6818 12.7553 33.342 10.244C33.2776 9.76777 33.1346 9.23954 32.9583 8.71888C32.3591 6.94871 30.4359 6.10727 28.6108 6.50957L19.0563 8.61576C17.2312 9.01806 15.84 10.5901 16.0406 12.4482C16.0996 12.9947 16.1919 13.5341 16.3337 13.9933C17.0812 16.4147 18.9798 18.6618 20.3325 20.0345C21.2311 20.9464 22.5441 21.2521 23.7943 20.9765L21.9306 21.3873C20.1647 21.7766 18.5729 22.7174 17.4786 24.1569C14.0876 28.6176 6.99449 39.0985 8.10177 47.4432C8.35413 49.3451 9.08801 51.5547 9.88884 53.5418C11.2764 56.9848 15.0391 58.6537 18.6641 57.8546L49.6688 51.02C53.2938 50.2209 56.0061 47.1247 55.8175 43.4174C55.7086 41.2778 55.4455 38.9644 54.8748 37.1327C52.371 29.0958 41.5286 22.5685 36.5765 19.947C34.9783 19.101 33.1385 18.9167 31.3726 19.306L29.5089 19.7168Z" fill="white"></path><path d="M37.9273 17.3953L36.5765 19.947L37.9273 17.3953C37.1666 16.9926 36.3741 16.6993 35.5679 16.5069C36.0891 14.6245 36.5202 12.1996 36.2032 9.8569C36.1044 9.12672 35.9002 8.40496 35.6931 7.79312C34.5242 4.34022 30.9346 3.0408 27.9893 3.69005L18.4347 5.79623C15.4895 6.44548 12.7788 9.13372 13.1701 12.758C13.2394 13.4002 13.3576 14.141 13.5749 14.845C14.2723 17.1039 15.683 19.1228 16.9473 20.6116C16.2966 21.1251 15.701 21.7244 15.1801 22.4097L17.4786 24.1569L15.1801 22.4097C13.4269 24.7159 10.6828 28.6197 8.50833 33.0778C6.37482 37.452 4.57219 42.7929 5.23964 47.823C5.53999 50.0865 6.38128 52.5625 7.21092 54.6211C9.19967 59.5556 14.4861 61.7321 19.2857 60.6741L50.2903 53.8395C55.0899 52.7815 58.9713 48.5841 58.701 43.2707C58.5882 41.0541 58.3105 38.4539 57.6314 36.2739C56.1221 31.4294 52.241 27.3414 48.4661 24.2697C44.6188 21.1389 40.4876 18.7507 37.9273 17.3953Z" stroke="white" stroke-width="5.77444"></path></g><g filter="url(#filter1_ii_4278_144566)"><path d="M32.2572 17.397C31.8236 18.6083 30.7554 19.4418 29.499 19.7188L23.8042 20.9742C22.5477 21.2511 21.2281 20.9439 20.3254 20.0272C18.9731 18.6538 17.0799 16.4103 16.3336 13.9931C16.1932 13.5383 16.1013 13.0049 16.0423 12.4637C15.8385 10.5966 17.2375 9.01651 19.0717 8.61219L28.5953 6.51281C30.4295 6.10849 32.3632 6.95394 32.9633 8.7337C33.1373 9.2495 33.2782 9.77217 33.342 10.2439C33.6812 12.7508 32.9067 15.5823 32.2572 17.397Z" fill="#3ADBA9"></path><path d="M32.2572 17.397C31.8236 18.6083 30.7554 19.4418 29.499 19.7188L23.8042 20.9742C22.5477 21.2511 21.2281 20.9439 20.3254 20.0272C18.9731 18.6538 17.0799 16.4103 16.3336 13.9931C16.1932 13.5383 16.1013 13.0049 16.0423 12.4637C15.8385 10.5966 17.2375 9.01651 19.0717 8.61219L28.5953 6.51281C30.4295 6.10849 32.3632 6.95394 32.9633 8.7337C33.1373 9.2495 33.2782 9.77217 33.342 10.2439C33.6812 12.7508 32.9067 15.5823 32.2572 17.397Z" fill="#24FEB7"></path><path d="M32.2572 17.397C31.8236 18.6083 30.7554 19.4418 29.499 19.7188L23.8042 20.9742C22.5477 21.2511 21.2281 20.9439 20.3254 20.0272C18.9731 18.6538 17.0799 16.4103 16.3336 13.9931C16.1932 13.5383 16.1013 13.0049 16.0423 12.4637C15.8385 10.5966 17.2375 9.01651 19.0717 8.61219L28.5953 6.51281C30.4295 6.10849 32.3632 6.95394 32.9633 8.7337C33.1373 9.2495 33.2782 9.77217 33.342 10.2439C33.6812 12.7508 32.9067 15.5823 32.2572 17.397Z" fill="url(#paint0_radial_4278_144566)" fill-opacity="0.2"></path></g><path d="M32.2572 17.397C31.8236 18.6083 30.7554 19.4418 29.499 19.7188L23.8042 20.9742C22.5477 21.2511 21.2281 20.9439 20.3254 20.0272C18.9731 18.6538 17.0799 16.4103 16.3336 13.9931C16.1932 13.5383 16.1013 13.0049 16.0423 12.4637C15.8385 10.5966 17.2375 9.01651 19.0717 8.61219L28.5953 6.51281C30.4295 6.10849 32.3632 6.95394 32.9633 8.7337C33.1373 9.2495 33.2782 9.77217 33.342 10.2439C33.6812 12.7508 32.9067 15.5823 32.2572 17.397Z" stroke="#031735" stroke-width="2.88722"></path><g filter="url(#filter2_ii_4278_144566)"><path d="M17.47 24.1679C18.5696 22.7209 20.1694 21.7754 21.9442 21.3842L31.3589 19.3088C33.1337 18.9176 34.9828 19.1028 36.5888 19.9534C41.5466 22.5792 52.373 29.1024 54.8748 37.1325C55.4426 38.9552 55.706 41.255 55.8158 43.3859C56.0079 47.1116 53.2813 50.2235 49.6381 51.0266L18.6947 57.8477C15.0515 58.6508 11.2693 56.9736 9.87707 53.5125C9.08081 51.533 8.35285 49.3356 8.10173 47.4431C6.99537 39.1053 14.0758 28.6348 17.47 24.1679Z" fill="#3ADBA9"></path><path d="M17.47 24.1679C18.5696 22.7209 20.1694 21.7754 21.9442 21.3842L31.3589 19.3088C33.1337 18.9176 34.9828 19.1028 36.5888 19.9534C41.5466 22.5792 52.373 29.1024 54.8748 37.1325C55.4426 38.9552 55.706 41.255 55.8158 43.3859C56.0079 47.1116 53.2813 50.2235 49.6381 51.0266L18.6947 57.8477C15.0515 58.6508 11.2693 56.9736 9.87707 53.5125C9.08081 51.533 8.35285 49.3356 8.10173 47.4431C6.99537 39.1053 14.0758 28.6348 17.47 24.1679Z" fill="#24FEB7"></path><path d="M17.47 24.1679C18.5696 22.7209 20.1694 21.7754 21.9442 21.3842L31.3589 19.3088C33.1337 18.9176 34.9828 19.1028 36.5888 19.9534C41.5466 22.5792 52.373 29.1024 54.8748 37.1325C55.4426 38.9552 55.706 41.255 55.8158 43.3859C56.0079 47.1116 53.2813 50.2235 49.6381 51.0266L18.6947 57.8477C15.0515 58.6508 11.2693 56.9736 9.87707 53.5125C9.08081 51.533 8.35285 49.3356 8.10173 47.4431C6.99537 39.1053 14.0758 28.6348 17.47 24.1679Z" fill="url(#paint1_radial_4278_144566)" fill-opacity="0.2"></path></g><path d="M17.47 24.1679C18.5696 22.7209 20.1694 21.7754 21.9442 21.3842L31.3589 19.3088C33.1337 18.9176 34.9828 19.1028 36.5888 19.9534C41.5466 22.5792 52.373 29.1024 54.8748 37.1325C55.4426 38.9552 55.706 41.255 55.8158 43.3859C56.0079 47.1116 53.2813 50.2235 49.6381 51.0266L18.6947 57.8477C15.0515 58.6508 11.2693 56.9736 9.87707 53.5125C9.08081 51.533 8.35285 49.3356 8.10173 47.4431C6.99537 39.1053 14.0758 28.6348 17.47 24.1679Z" stroke="#031735" stroke-width="2.88722"></path><path fill-rule="evenodd" clip-rule="evenodd" d="M29.6285 40.2413C29.0659 41.0639 29.2766 42.1869 30.0992 42.7495C30.9218 43.3121 32.0448 43.1014 32.6074 42.2788L37.0615 35.7665C37.3317 35.3714 37.4339 34.8853 37.3456 34.4149C37.2574 33.9445 36.9858 33.5285 36.5908 33.2583L30.0785 28.8042C29.2559 28.2415 28.133 28.4523 27.5703 29.2749C27.0077 30.0975 27.2185 31.2204 28.0411 31.7831L33.0639 35.2185L29.6285 40.2413ZM29.4409 37.5828C29.9773 36.7429 29.7314 35.6271 28.8915 35.0906C28.0516 34.5541 26.9359 34.8001 26.3994 35.64L22.1522 42.2891C21.8946 42.6924 21.8077 43.1816 21.9107 43.649C22.0138 44.1163 22.2982 44.5236 22.7016 44.7812L29.3507 49.0284C30.1906 49.5649 31.3063 49.3189 31.8428 48.4791C32.3793 47.6392 32.1333 46.5234 31.2935 45.9869L26.1651 42.7111L29.4409 37.5828Z" fill="#031735"></path><defs><filter id="filter0_d_4278_144566" x="1.68518" y="0.646851" width="61.4954" height="65.2781" filterUnits="userSpaceOnUse" color-interpolation-filters="sRGB"><feFlood flood-opacity="0" result="BackgroundImageFix"></feFlood><feColorMatrix in="SourceAlpha" type="matrix" values="0 0 0 0 0 0 0 0 0 0 0 0 0 0 0 0 0 0 127 0" result="hardAlpha"></feColorMatrix><feOffset dx="0.526261" dy="1.05252"></feOffset><feGaussianBlur stdDeviation="0.526261"></feGaussianBlur><feComposite in2="hardAlpha" operator="out"></feComposite><feColorMatrix type="matrix" values="0 0 0 0 0 0 0 0 0 0 0 0 0 0 0 0 0 0 0.1 0"></feColorMatrix><feBlend mode="normal" in2="BackgroundImageFix" result="effect1_dropShadow_4278_144566"></feBlend><feBlend mode="normal" in="SourceGraphic" in2="effect1_dropShadow_4278_144566" result="shape"></feBlend></filter><filter id="filter1_ii_4278_144566" x="14.0517" y="2.34111" width="21.8687" height="21.2267" filterUnits="userSpaceOnUse" color-interpolation-filters="sRGB"><feFlood flood-opacity="0" result="BackgroundImageFix"></feFlood><feBlend mode="normal" in="SourceGraphic" in2="BackgroundImageFix" result="shape"></feBlend><feColorMatrix in="SourceAlpha" type="matrix" values="0 0 0 0 0 0 0 0 0 0 0 0 0 0 0 0 0 0 127 0" result="hardAlpha"></feColorMatrix><feOffset dx="-0.526261" dy="-2.63131"></feOffset><feGaussianBlur stdDeviation="1.8591"></feGaussianBlur><feComposite in2="hardAlpha" operator="arithmetic" k2="-1" k3="1"></feComposite><feColorMatrix type="matrix" values="0 0 0 0 0.0516667 0 0 0 0 0.775 0 0 0 0 0.2542 0 0 0 0.2 0"></feColorMatrix><feBlend mode="normal" in2="shape" result="effect1_innerShadow_4278_144566"></feBlend><feColorMatrix in="SourceAlpha" type="matrix" values="0 0 0 0 0 0 0 0 0 0 0 0 0 0 0 0 0 0 127 0" result="hardAlpha"></feColorMatrix><feOffset dx="2.63131" dy="3.68383"></feOffset><feGaussianBlur stdDeviation="0.526261"></feGaussianBlur><feComposite in2="hardAlpha" operator="arithmetic" k2="-1" k3="1"></feComposite><feColorMatrix type="matrix" values="0 0 0 0 0.6675 0 0 0 0 1 0 0 0 0 0.125 0 0 0 0.6 0"></feColorMatrix><feBlend mode="normal" in2="effect1_innerShadow_4278_144566" result="effect2_innerShadow_4278_144566"></feBlend></filter><filter id="filter2_ii_4278_144566" x="6.01582" y="15.0382" width="52.3059" height="45.5021" filterUnits="userSpaceOnUse" color-interpolation-filters="sRGB"><feFlood flood-opacity="0" result="BackgroundImageFix"></feFlood><feBlend mode="normal" in="SourceGraphic" in2="BackgroundImageFix" result="shape"></feBlend><feColorMatrix in="SourceAlpha" type="matrix" values="0 0 0 0 0 0 0 0 0 0 0 0 0 0 0 0 0 0 127 0" result="hardAlpha"></feColorMatrix><feOffset dx="-0.526261" dy="-2.63131"></feOffset><feGaussianBlur stdDeviation="1.8591"></feGaussianBlur><feComposite in2="hardAlpha" operator="arithmetic" k2="-1" k3="1"></feComposite><feColorMatrix type="matrix" values="0 0 0 0 0.0516667 0 0 0 0 0.775 0 0 0 0 0.2542 0 0 0 0.2 0"></feColorMatrix><feBlend mode="normal" in2="shape" result="effect1_innerShadow_4278_144566"></feBlend><feColorMatrix in="SourceAlpha" type="matrix" values="0 0 0 0 0 0 0 0 0 0 0 0 0 0 0 0 0 0 127 0" result="hardAlpha"></feColorMatrix><feOffset dx="2.63131" dy="3.68383"></feOffset><feGaussianBlur stdDeviation="0.526261"></feGaussianBlur><feComposite in2="hardAlpha" operator="arithmetic" k2="-1" k3="1"></feComposite><feColorMatrix type="matrix" values="0 0 0 0 0.6675 0 0 0 0 1 0 0 0 0 0.125 0 0 0 0.6 0"></feColorMatrix><feBlend mode="normal" in2="effect1_innerShadow_4278_144566" result="effect2_innerShadow_4278_144566"></feBlend></filter><radialGradient id="paint0_radial_4278_144566" cx="0" cy="0" r="1" gradientUnits="userSpaceOnUse" gradientTransform="translate(25.4606 14.6942) rotate(-34.4638) scale(12.7644 11.1111)"><stop offset="0.564818" stop-color="#3ADBA9"></stop><stop offset="1" stop-color="#08996C"></stop></radialGradient><radialGradient id="paint1_radial_4278_144566" cx="0" cy="0" r="1" gradientUnits="userSpaceOnUse" gradientTransform="translate(29.8231 35.4203) rotate(146.143) scale(34.9543 29.7548)"><stop offset="0.564818" stop-color="#3ADBA9"></stop><stop offset="1" stop-color="#08996C"></stop></radialGradient></defs></svg>