<svg width="78" height="69" viewBox="0 0 78 69" fill="none" xmlns="http://www.w3.org/2000/svg"><path d="M69.3171 44.2792L11.2396 56.624C8.77485 57.1479 7.20148 59.5707 7.72538 62.0354C8.24928 64.5001 10.672 66.0735 13.1368 65.5496L71.2143 53.2048C73.679 52.6809 75.2524 50.2582 74.7285 47.7934C74.2046 45.3287 71.7818 43.7553 69.3171 44.2792Z" stroke="white" stroke-width="6" stroke-linejoin="round"></path><path d="M41.8311 57.7571C56.6027 54.6173 66.0321 40.0974 62.8923 25.3258C59.7525 10.5543 45.2326 1.12488 30.461 4.26468C15.6894 7.40447 6.26004 21.9245 9.39983 36.696C12.5396 51.4676 27.0596 60.8969 41.8311 57.7571Z" fill="#3ADBA9" stroke="white" stroke-width="4.6875" stroke-linecap="round" stroke-linejoin="round"></path><path d="M58.3072 26.3004C60.9088 38.5397 53.0959 50.5705 40.8565 53.1721C28.6173 55.7736 16.5864 47.9607 13.9849 35.7214C11.3834 23.4821 19.1963 11.4513 31.4356 8.84975C43.6749 6.2482 55.7057 14.0611 58.3072 26.3004Z" fill="#3ADBA9" stroke="#020D1E" stroke-width="4.6875" stroke-linecap="round" stroke-linejoin="round"></path><path fill-rule="evenodd" clip-rule="evenodd" d="M35.3205 15.8511C35.0514 14.585 33.8068 13.7768 32.5407 14.0459C31.2743 14.3151 30.4663 15.5596 30.7354 16.8257L31.3086 19.5222C30.0113 19.9574 28.707 20.607 27.6794 21.5964C26.3775 22.85 25.6177 24.5677 25.8081 26.6492C25.9512 28.2136 26.4113 29.5797 27.2462 30.6936C28.0851 31.8127 29.178 32.511 30.3086 32.9397C32.3874 33.7285 34.8869 33.6892 36.7844 33.6593L36.8704 33.658L37.0337 33.6552C38.0071 33.64 38.864 33.6266 39.652 33.6696C40.4882 33.7152 41.0831 33.8191 41.4955 33.9707C41.8702 34.1086 42.0011 34.2495 42.0705 34.3581C42.1528 34.4869 42.318 34.8419 42.2923 35.6841C42.2795 36.1034 42.0946 36.5382 41.4409 37.0369C40.7415 37.5702 39.6591 38.0379 38.2965 38.3729C35.516 39.0566 32.4698 38.9814 31.2148 38.6265C29.9693 38.2743 28.674 38.9985 28.3219 40.2443C27.9696 41.4897 28.6938 42.7849 29.9394 43.1371C31.5221 43.5847 33.936 43.7032 36.3934 43.4444L36.9728 46.1701C37.2419 47.4362 38.4862 48.2445 39.7526 47.9754C41.0187 47.7062 41.827 46.4616 41.5578 45.1955L40.9779 42.4671C42.1571 42.0599 43.3073 41.5084 44.2833 40.7642C45.7345 39.6574 46.9104 38.0215 46.9777 35.828C47.023 34.3501 46.7545 32.9816 46.0195 31.8325C45.2716 30.6633 44.2021 29.9722 43.1144 29.5717C42.0646 29.1853 40.9351 29.0452 39.9072 28.9889C38.9472 28.9365 37.9328 28.9527 37.006 28.9676L36.7971 28.9711C34.6585 29.0043 33.0822 28.9787 31.9712 28.557C31.4909 28.3747 31.1978 28.1498 30.9967 27.882C30.792 27.6086 30.5586 27.1237 30.4762 26.2221C30.4238 25.6511 30.5847 25.3063 30.9308 24.973C31.3639 24.556 32.1364 24.1399 33.2842 23.8174C35.5736 23.1742 38.4999 23.1373 40.3877 23.3555C41.6736 23.504 42.8367 22.582 42.9851 21.2962C43.1338 20.0103 42.2116 18.8475 40.9257 18.6989C39.5763 18.543 37.7817 18.4841 35.9126 18.6368L35.3205 15.8511Z" fill="#020D1E"></path><path d="M69.9408 47.2137L11.8633 59.5584C11.0192 59.7379 10.4804 60.5676 10.6598 61.4117C10.8392 62.2557 11.669 62.7946 12.513 62.6152L70.5906 50.2704C71.4346 50.091 71.9735 49.2613 71.794 48.4172C71.6146 47.5731 70.7849 47.0343 69.9408 47.2137Z" fill="#020D1E" stroke="#020D1E" stroke-width="2" stroke-linejoin="round"></path></svg>