<svg width="74" height="72" viewBox="0 0 74 72" fill="none" xmlns="http://www.w3.org/2000/svg"><mask id="path-1-outside-1_4359_164416" maskUnits="userSpaceOnUse" x="-1.98191" y="-5.71243" width="81.6138" height="81.6138" fill="black"><rect fill="white" x="-1.98191" y="-5.71243" width="81.6138" height="81.6138"></rect><path fill-rule="evenodd" clip-rule="evenodd" d="M46.2925 7.67305C45.6939 6.71247 44.4298 6.41908 43.4693 7.01774L33.6304 13.1496C32.6698 13.7483 32.3764 15.0123 32.9751 15.9729C33.5737 16.9335 34.8378 17.2269 35.7983 16.6282L41.4382 13.1133L38.2321 26.9262C37.9762 28.0288 38.6625 29.13 39.7651 29.3859C40.8676 29.6419 41.9689 28.9555 42.2248 27.853L45.4309 14.04L48.9458 19.6799C49.5445 20.6405 50.8085 20.9339 51.7691 20.3352C52.7297 19.7365 53.0231 18.4725 52.4244 17.5119L46.2925 7.67305ZM27.0739 23.635C28.7269 24.0187 30.3263 24.5885 31.9102 25.2863C32.946 25.7426 34.1556 25.2728 34.6119 24.237C35.0682 23.2011 34.5984 21.9916 33.5625 21.5353C31.8023 20.7599 29.9571 20.0964 28.0006 19.6423C23.9533 18.7029 18.3081 18.8665 15.4614 19.0242L15.4614 19.0242C13.338 19.1419 11.6325 20.6685 11.1691 22.6654L5.03182 49.1064C4.31003 52.2161 6.75703 55.0884 9.85796 55.05L9.85803 55.05C12.8173 55.0132 16.868 55.0799 19.8039 55.5585C24.6906 56.3552 28.0209 58.5477 31.6903 60.9893L31.7763 61.0466C35.4052 63.4614 39.3797 66.1063 45.1878 67.0532L45.188 67.0532C49.1327 67.6961 54.5806 67.6582 57.4432 67.584L57.3901 65.5353L57.4431 67.584C57.4431 67.584 57.4432 67.584 57.4432 67.584C59.6216 67.5276 61.4249 65.9898 61.9052 63.9203L67.9875 37.7157C68.7295 34.5193 66.1402 31.6312 63.004 31.7324C60.0452 31.828 56.1435 31.7771 53.3847 31.1368C51.7316 30.7531 50.1324 30.1833 48.5484 29.4855C47.5126 29.0292 46.303 29.499 45.8467 30.5348C45.3904 31.5707 45.8602 32.7803 46.896 33.2365C48.6563 34.0119 50.5014 34.6754 52.4579 35.1295C55.7806 35.9007 60.149 35.9256 63.1363 35.8291L63.0702 33.7808L63.1363 35.8291C63.7255 35.8101 64.0957 36.3544 63.9948 36.789L57.9125 62.9936C57.8419 63.2979 57.5945 63.4799 57.3371 63.4866L57.337 63.4866C54.4639 63.5611 49.3684 63.5816 45.8474 63.0077L45.5176 65.0305L45.8473 63.0077C45.8473 63.0077 45.8473 63.0077 45.8474 63.0077C40.9606 62.2111 37.6303 60.0185 33.9609 57.5769L33.8749 57.5197C30.246 55.1048 26.2716 52.4599 20.4634 51.513C17.1464 50.9723 12.7857 50.9144 9.80713 50.9514C9.80715 50.9514 9.80718 50.9514 9.8072 50.9514L9.83258 53.0007L9.80713 50.9514C9.27333 50.958 8.92447 50.4642 9.02451 50.0332L15.1618 23.5921C15.2307 23.2949 15.4604 23.1294 15.6883 23.1168C18.5603 22.9576 23.664 22.8435 27.0739 23.635Z"></path></mask><path fill-rule="evenodd" clip-rule="evenodd" d="M46.2925 7.67305C45.6939 6.71247 44.4298 6.41908 43.4693 7.01774L33.6304 13.1496C32.6698 13.7483 32.3764 15.0123 32.9751 15.9729C33.5737 16.9335 34.8378 17.2269 35.7983 16.6282L41.4382 13.1133L38.2321 26.9262C37.9762 28.0288 38.6625 29.13 39.7651 29.3859C40.8676 29.6419 41.9689 28.9555 42.2248 27.853L45.4309 14.04L48.9458 19.6799C49.5445 20.6405 50.8085 20.9339 51.7691 20.3352C52.7297 19.7365 53.0231 18.4725 52.4244 17.5119L46.2925 7.67305ZM27.0739 23.635C28.7269 24.0187 30.3263 24.5885 31.9102 25.2863C32.946 25.7426 34.1556 25.2728 34.6119 24.237C35.0682 23.2011 34.5984 21.9916 33.5625 21.5353C31.8023 20.7599 29.9571 20.0964 28.0006 19.6423C23.9533 18.7029 18.3081 18.8665 15.4614 19.0242L15.4614 19.0242C13.338 19.1419 11.6325 20.6685 11.1691 22.6654L5.03182 49.1064C4.31003 52.2161 6.75703 55.0884 9.85796 55.05L9.85803 55.05C12.8173 55.0132 16.868 55.0799 19.8039 55.5585C24.6906 56.3552 28.0209 58.5477 31.6903 60.9893L31.7763 61.0466C35.4052 63.4614 39.3797 66.1063 45.1878 67.0532L45.188 67.0532C49.1327 67.6961 54.5806 67.6582 57.4432 67.584L57.3901 65.5353L57.4431 67.584C57.4431 67.584 57.4432 67.584 57.4432 67.584C59.6216 67.5276 61.4249 65.9898 61.9052 63.9203L67.9875 37.7157C68.7295 34.5193 66.1402 31.6312 63.004 31.7324C60.0452 31.828 56.1435 31.7771 53.3847 31.1368C51.7316 30.7531 50.1324 30.1833 48.5484 29.4855C47.5126 29.0292 46.303 29.499 45.8467 30.5348C45.3904 31.5707 45.8602 32.7803 46.896 33.2365C48.6563 34.0119 50.5014 34.6754 52.4579 35.1295C55.7806 35.9007 60.149 35.9256 63.1363 35.8291L63.0702 33.7808L63.1363 35.8291C63.7255 35.8101 64.0957 36.3544 63.9948 36.789L57.9125 62.9936C57.8419 63.2979 57.5945 63.4799 57.3371 63.4866L57.337 63.4866C54.4639 63.5611 49.3684 63.5816 45.8474 63.0077L45.5176 65.0305L45.8473 63.0077C45.8473 63.0077 45.8473 63.0077 45.8474 63.0077C40.9606 62.2111 37.6303 60.0185 33.9609 57.5769L33.8749 57.5197C30.246 55.1048 26.2716 52.4599 20.4634 51.513C17.1464 50.9723 12.7857 50.9144 9.80713 50.9514C9.80715 50.9514 9.80718 50.9514 9.8072 50.9514L9.83258 53.0007L9.80713 50.9514C9.27333 50.958 8.92447 50.4642 9.02451 50.0332L15.1618 23.5921C15.2307 23.2949 15.4604 23.1294 15.6883 23.1168C18.5603 22.9576 23.664 22.8435 27.0739 23.635Z" fill="#020D1E"></path><path d="M43.4693 7.01774L45.6372 10.4963L45.6372 10.4963L43.4693 7.01774ZM46.2925 7.67305L42.8139 9.841L42.8139 9.841L46.2925 7.67305ZM33.6304 13.1496L31.4624 9.67107L33.6304 13.1496ZM32.9751 15.9729L36.4536 13.8049L36.4536 13.805L32.9751 15.9729ZM35.7983 16.6282L33.6304 13.1496L33.6304 13.1496L35.7983 16.6282ZM41.4382 13.1133L39.2703 9.63469C40.6772 8.75784 42.4738 8.81485 43.8223 9.77914C45.1709 10.7434 45.8057 12.4251 45.4309 14.04L41.4382 13.1133ZM45.4309 14.04L41.4382 13.1133C41.813 11.4984 43.1238 10.2683 44.7592 9.99659C46.3946 9.72489 48.0326 10.4651 48.9095 11.872L45.4309 14.04ZM48.9458 19.6799L45.4673 21.8478L45.4673 21.8478L48.9458 19.6799ZM51.7691 20.3352L53.9371 23.8138L53.9371 23.8138L51.7691 20.3352ZM52.4244 17.5119L55.903 15.344L55.903 15.344L52.4244 17.5119ZM31.9102 25.2863L30.2578 29.0373L30.2578 29.0373L31.9102 25.2863ZM34.6119 24.237L30.8608 22.5846L30.8608 22.5846L34.6119 24.237ZM33.5625 21.5353L35.2149 17.7842L35.2149 17.7842L33.5625 21.5353ZM15.4614 19.0242L15.2331 14.9317L15.2347 14.9317L15.4614 19.0242ZM15.4614 19.0242L15.6896 23.1167L15.6883 23.1168L15.4614 19.0242ZM9.85796 55.05L9.8072 50.9514C9.82586 50.9512 9.84452 50.9511 9.86318 50.9511L9.85796 55.05ZM9.85803 55.05L9.90894 59.1485C9.89023 59.1487 9.87153 59.1488 9.85282 59.1488L9.85803 55.05ZM19.8039 55.5585L20.4634 51.513L20.4634 51.513L19.8039 55.5585ZM31.6903 60.9893L33.961 57.5769L33.961 57.577L31.6903 60.9893ZM31.7763 61.0466L34.0471 57.6342L34.0471 57.6342L31.7763 61.0466ZM45.1878 67.0532L44.6306 71.114C44.5964 71.1093 44.5624 71.1042 44.5283 71.0986L45.1878 67.0532ZM45.188 67.0532L45.7452 62.9924C45.7793 62.9971 45.8133 63.0022 45.8473 63.0077L45.188 67.0532ZM57.3901 65.5353L53.2926 65.6412C53.2341 63.3783 55.0211 61.4964 57.284 61.4378C59.5469 61.3792 61.4289 63.1661 61.4876 65.429L57.3901 65.5353ZM57.4431 67.584L57.3725 71.6823C55.1778 71.6445 53.4023 69.8843 53.3456 67.69L57.4431 67.584ZM63.004 31.7324L63.1363 35.8291L63.1363 35.8291L63.004 31.7324ZM48.5484 29.4855L46.896 33.2365L46.896 33.2365L48.5484 29.4855ZM45.8467 30.5348L49.5977 32.1872L49.5977 32.1872L45.8467 30.5348ZM46.896 33.2365L48.5484 29.4855L48.5484 29.4855L46.896 33.2365ZM63.1363 35.8291L67.233 35.6969C67.2681 36.7834 66.8701 37.8393 66.1267 38.6324C65.3832 39.4255 64.3551 39.8908 63.2686 39.9259L63.1363 35.8291ZM63.0702 33.7808L58.9735 33.9131C58.9004 31.6505 60.6754 29.7572 62.9379 29.6841C65.2004 29.611 67.0938 31.386 67.1669 33.6485L63.0702 33.7808ZM63.1363 35.8291L63.2686 39.9258C62.1821 39.9609 61.1262 39.563 60.3331 38.8195C59.54 38.076 59.0747 37.048 59.0396 35.9615L63.1363 35.8291ZM57.3371 63.4866L57.4431 67.584C57.4309 67.5843 57.4186 67.5846 57.4064 67.5848L57.3371 63.4866ZM57.337 63.4866L57.2307 59.3891C57.243 59.3888 57.2554 59.3885 57.2677 59.3883L57.337 63.4866ZM45.5176 65.0305L49.563 65.69C49.1988 67.9242 47.0924 69.4401 44.8582 69.0759C42.624 68.7117 41.108 66.6054 41.4721 64.3712L45.5176 65.0305ZM45.8473 63.0077L41.8018 62.3484C41.9843 61.2288 42.6226 60.2349 43.5648 59.6032C44.5071 58.9715 45.669 58.7585 46.774 59.015L45.8473 63.0077ZM33.9609 57.5769L31.6903 60.9893L31.6902 60.9892L33.9609 57.5769ZM33.8749 57.5197L36.1457 54.1073L36.1457 54.1073L33.8749 57.5197ZM20.4634 51.513L21.1229 47.4676L21.1229 47.4676L20.4634 51.513ZM9.8072 50.9514L10.7339 46.9587C12.5728 47.3856 13.8823 49.0131 13.9057 50.9007L9.8072 50.9514ZM9.83258 53.0007L13.9311 52.9499C13.9591 55.2135 12.1469 57.0711 9.88342 57.0992C7.61989 57.1273 5.76218 55.3151 5.73406 53.0516L9.83258 53.0007ZM15.6883 23.1168L15.4614 19.0242L15.4615 19.0242L15.6883 23.1168ZM41.3013 3.53917C44.183 1.74318 47.9751 2.62335 49.7711 5.5051L42.8139 9.841C43.4126 10.8016 44.6766 11.095 45.6372 10.4963L41.3013 3.53917ZM31.4624 9.67107L41.3013 3.53917L45.6372 10.4963L35.7983 16.6282L31.4624 9.67107ZM29.4965 18.1409C27.7005 15.2591 28.5807 11.4671 31.4624 9.67107L35.7983 16.6282C36.7589 16.0295 37.0523 14.7655 36.4536 13.8049L29.4965 18.1409ZM37.9663 20.1068C35.0845 21.9028 31.2925 21.0226 29.4965 18.1409L36.4536 13.805C35.855 12.8444 34.591 12.551 33.6304 13.1496L37.9663 20.1068ZM43.6062 16.5918L37.9663 20.1068L33.6304 13.1496L39.2703 9.63469L43.6062 16.5918ZM34.2394 25.9995L37.4455 12.1865L45.4309 14.04L42.2248 27.853L34.2394 25.9995ZM38.8383 33.3786C35.5307 32.6109 33.4716 29.3071 34.2394 25.9995L42.2248 27.853C42.4807 26.7504 41.7944 25.6492 40.6918 25.3933L38.8383 33.3786ZM46.2175 28.7797C45.4497 32.0874 42.146 34.1464 38.8383 33.3786L40.6918 25.3933C39.5892 25.1373 38.488 25.8237 38.2321 26.9262L46.2175 28.7797ZM49.4236 14.9667L46.2175 28.7797L38.2321 26.9262L41.4382 13.1133L49.4236 14.9667ZM45.4673 21.8478L41.9523 16.208L48.9095 11.872L52.4244 17.5119L45.4673 21.8478ZM53.9371 23.8138C51.0553 25.6097 47.2633 24.7296 45.4673 21.8478L52.4244 17.5119C51.8258 16.5513 50.5617 16.258 49.6012 16.8566L53.9371 23.8138ZM55.903 15.344C57.699 18.2257 56.8188 22.0178 53.9371 23.8138L49.6012 16.8566C48.6406 17.4553 48.3472 18.7193 48.9459 19.6799L55.903 15.344ZM49.7711 5.50509L55.903 15.344L48.9459 19.6799L42.8139 9.841L49.7711 5.50509ZM30.2578 29.0373C28.8502 28.4172 27.4967 27.9409 26.1472 27.6277L28.0006 19.6423C29.9571 20.0964 31.8024 20.7599 33.5625 21.5353L30.2578 29.0373ZM38.3629 25.8893C36.994 28.9968 33.3652 30.4062 30.2578 29.0373L33.5625 21.5353C32.5267 21.079 31.3171 21.5488 30.8608 22.5846L38.3629 25.8893ZM35.2149 17.7842C38.3224 19.1531 39.7317 22.7819 38.3629 25.8893L30.8608 22.5846C30.4045 23.6204 30.8743 24.83 31.9102 25.2863L35.2149 17.7842ZM28.9274 15.6496C31.1872 16.1741 33.2784 16.9312 35.2149 17.7842L31.9102 25.2863C30.3263 24.5886 28.7269 24.0187 27.0739 23.635L28.9274 15.6496ZM15.2347 14.9317C18.0578 14.7752 24.2433 14.5624 28.9274 15.6496L27.0739 23.635C23.6633 22.8434 18.5584 22.9577 15.6882 23.1168L15.2347 14.9317ZM15.2331 14.9317L15.2331 14.9317L15.6897 23.1167L15.6896 23.1167L15.2331 14.9317ZM7.17637 21.7386C8.03294 18.0482 11.2095 15.1548 15.2345 14.9317L15.6883 23.1168C15.4665 23.1291 15.2321 23.2888 15.1618 23.5921L7.17637 21.7386ZM1.03913 48.1797L7.17637 21.7386L15.1618 23.5921L9.02451 50.0332L1.03913 48.1797ZM9.90873 59.1485C4.25807 59.2185 -0.308261 53.9847 1.03913 48.1797L9.02451 50.0332C8.97118 50.263 9.02154 50.4666 9.17308 50.6503C9.33631 50.8481 9.56553 50.9544 9.8072 50.9514L9.90873 59.1485ZM9.85282 59.1488L9.85275 59.1488L9.86318 50.9511L9.86325 50.9511L9.85282 59.1488ZM19.1444 59.6039C16.5899 59.1875 12.8494 59.112 9.90894 59.1485L9.80712 50.9514C12.7851 50.9145 17.1461 50.9722 20.4634 51.513L19.1444 59.6039ZM29.4197 64.4017C25.7301 61.9467 23.0623 60.2426 19.1444 59.6039L20.4634 51.513C26.319 52.4677 30.3117 55.1487 33.961 57.5769L29.4197 64.4017ZM29.5056 64.4589L29.4196 64.4017L33.961 57.577L34.0471 57.6342L29.5056 64.4589ZM44.5283 71.0986C37.7601 69.9952 33.1321 66.8722 29.5056 64.4589L34.0471 57.6342C37.6783 60.0506 40.9993 62.2174 45.8474 63.0078L44.5283 71.0986ZM44.6307 71.114L44.6306 71.114L45.7451 62.9924L45.7452 62.9924L44.6307 71.114ZM57.5495 71.6815C54.6966 71.7555 48.8969 71.8106 44.5287 71.0987L45.8473 63.0077C49.3686 63.5816 54.4647 63.561 57.337 63.4866L57.5495 71.6815ZM61.4876 65.429L61.5407 67.4778L53.3458 67.6903L53.2926 65.6415L61.4876 65.429ZM53.3456 67.69L53.2926 65.6412L61.4876 65.4293L61.5405 67.4781L53.3456 67.69ZM57.3727 71.6822C57.4077 71.6829 57.4387 71.6829 57.4646 71.6828C57.4906 71.6827 57.5127 71.6823 57.5298 71.6819C57.5468 71.6816 57.5604 71.6812 57.5687 71.6809C57.5729 71.6808 57.5763 71.6807 57.5784 71.6806C57.5802 71.6806 57.5819 71.6805 57.5816 71.6805C57.5816 71.6805 57.5816 71.6805 57.5816 71.6805C57.5816 71.6805 57.5816 71.6805 57.5816 71.6805C57.5816 71.6805 57.5815 71.6805 57.5815 71.6805C57.5815 71.6805 57.5814 71.6805 57.5814 71.6805C57.5812 71.6805 57.581 71.6805 57.5808 71.6805C57.5803 71.6806 57.5794 71.6806 57.5783 71.6806C57.5763 71.6807 57.5729 71.6808 57.5686 71.6809C57.5604 71.6812 57.5467 71.6816 57.5297 71.6819C57.5126 71.6823 57.4905 71.6827 57.4645 71.6828C57.4385 71.6829 57.4075 71.6829 57.3725 71.6823L57.5136 63.4858C57.4786 63.4852 57.4476 63.4851 57.4216 63.4852C57.3957 63.4854 57.3735 63.4857 57.3565 63.4861C57.3395 63.4865 57.3258 63.4869 57.3176 63.4871C57.3134 63.4872 57.31 63.4873 57.3079 63.4874C57.306 63.4875 57.3044 63.4875 57.3047 63.4875C57.3047 63.4875 57.3047 63.4875 57.3047 63.4875C57.3047 63.4875 57.3047 63.4875 57.3047 63.4875C57.3047 63.4875 57.3047 63.4875 57.3048 63.4875C57.3048 63.4875 57.3048 63.4875 57.3049 63.4875C57.305 63.4875 57.3052 63.4875 57.3055 63.4875C57.306 63.4875 57.3069 63.4874 57.3079 63.4874C57.31 63.4873 57.3134 63.4872 57.3176 63.4871C57.3259 63.4868 57.3396 63.4865 57.3565 63.4861C57.3736 63.4857 57.3958 63.4854 57.4217 63.4852C57.4477 63.4851 57.4787 63.4852 57.5137 63.4858L57.3727 71.6822ZM65.8979 64.8471C65.0089 68.6771 61.6532 71.5752 57.5493 71.6815L57.3371 63.4866C57.59 63.48 57.8408 63.3024 57.9125 62.9936L65.8979 64.8471ZM71.9802 38.6425L65.8979 64.8471L57.9125 62.9936L63.9948 36.789L71.9802 38.6425ZM62.8717 27.6357C68.5269 27.4531 73.3694 32.6577 71.9802 38.6425L63.9948 36.789C64.0501 36.5508 63.9986 36.3431 63.8326 36.1486C63.6477 35.932 63.3886 35.821 63.1363 35.8291L62.8717 27.6357ZM54.3114 27.1441C56.5057 27.6534 59.9401 27.7304 62.8718 27.6357L63.1363 35.8291C60.1503 35.9256 55.7812 35.9009 52.4579 35.1295L54.3114 27.1441ZM50.2008 25.7345C51.6085 26.3546 52.9618 26.8308 54.3114 27.1441L52.4579 35.1295C50.5014 34.6754 48.6563 34.0119 46.896 33.2365L50.2008 25.7345ZM42.0957 28.8825C43.4645 25.775 47.0933 24.3656 50.2008 25.7345L46.896 33.2365C47.9319 33.6928 49.1415 33.223 49.5977 32.1872L42.0957 28.8825ZM45.2437 36.9876C42.1362 35.6187 40.7268 31.9899 42.0957 28.8825L49.5977 32.1872C50.054 31.1514 49.5842 29.9418 48.5484 29.4855L45.2437 36.9876ZM51.5312 39.1222C49.2713 38.5976 47.1802 37.8406 45.2437 36.9876L48.5484 29.4855C50.1324 30.1833 51.7316 30.7531 53.3847 31.1368L51.5312 39.1222ZM63.2686 39.9259C60.2515 40.0233 55.4172 40.0242 51.5312 39.1222L53.3847 31.1368C56.144 31.7773 60.0465 31.8279 63.004 31.7324L63.2686 39.9259ZM67.1669 33.6485L67.233 35.6969L59.0396 35.9614L58.9735 33.9131L67.1669 33.6485ZM59.0396 35.9615L58.9735 33.9131L67.1669 33.6485L67.233 35.6968L59.0396 35.9615ZM60.0022 35.8622C59.7238 37.0615 60.1249 38.0892 60.6501 38.7321C61.2376 39.4513 62.1852 39.9608 63.2686 39.9258L63.004 31.7324C66.3073 31.6258 68.6921 34.6804 67.9875 37.7157L60.0022 35.8622ZM53.9198 62.0668L60.0022 35.8622L67.9875 37.7157L61.9052 63.9203L53.9198 62.0668ZM57.2311 59.3891C55.6027 59.4312 54.267 60.5712 53.9198 62.0668L61.9052 63.9203C61.4168 66.0246 59.5863 67.5286 57.4431 67.584L57.2311 59.3891ZM57.2677 59.3883L57.2678 59.3883L57.4064 67.5848L57.4063 67.5848L57.2677 59.3883ZM46.5067 58.9623C49.6035 59.467 54.3464 59.4639 57.2307 59.3891L57.4432 67.584C54.5815 67.6582 49.1332 67.6961 45.1881 67.0532L46.5067 58.9623ZM49.8928 63.6673L49.563 65.69L41.4722 64.3709L41.8019 62.3482L49.8928 63.6673ZM41.4721 64.3712L41.8018 62.3484L49.8927 63.667L49.5631 65.6898L41.4721 64.3712ZM46.774 59.015C46.6826 58.9938 46.6009 58.9782 46.5318 58.9665C46.463 58.9548 46.4039 58.9466 46.3583 58.9409C46.3353 58.938 46.3148 58.9356 46.2976 58.9337C46.2805 58.9318 46.2657 58.9303 46.2544 58.9292C46.2431 58.928 46.234 58.9272 46.2284 58.9267C46.2234 58.9262 46.2191 58.9258 46.2198 58.9259C46.2198 58.9259 46.2198 58.9259 46.2198 58.9259C46.2198 58.9259 46.2198 58.9259 46.2199 58.9259C46.2199 58.9259 46.2199 58.9259 46.22 58.9259C46.22 58.9259 46.2202 58.9259 46.2204 58.9259C46.2207 58.9259 46.2213 58.926 46.222 58.9261C46.2234 58.9262 46.2256 58.9264 46.2285 58.9267C46.234 58.9272 46.2431 58.928 46.2544 58.9292C46.2658 58.9303 46.2805 58.9318 46.2977 58.9337C46.3149 58.9356 46.3353 58.938 46.3583 58.9409C46.404 58.9466 46.4631 58.9548 46.5319 58.9665C46.6009 58.9782 46.6827 58.9938 46.7741 59.0151L44.9206 67.0004C45.012 67.0217 45.0938 67.0373 45.1628 67.049C45.2316 67.0607 45.2908 67.0689 45.3364 67.0746C45.3594 67.0775 45.3798 67.0799 45.397 67.0818C45.4142 67.0837 45.4289 67.0852 45.4403 67.0863C45.4516 67.0874 45.4607 67.0883 45.4662 67.0888C45.4712 67.0893 45.4755 67.0897 45.4748 67.0896C45.4748 67.0896 45.4748 67.0896 45.4748 67.0896C45.4748 67.0896 45.4748 67.0896 45.4748 67.0896C45.4748 67.0896 45.4747 67.0896 45.4747 67.0896C45.4746 67.0896 45.4745 67.0896 45.4743 67.0896C45.4739 67.0895 45.4734 67.0895 45.4727 67.0894C45.4713 67.0893 45.469 67.0891 45.4662 67.0888C45.4607 67.0883 45.4515 67.0874 45.4402 67.0863C45.4289 67.0852 45.4142 67.0837 45.397 67.0818C45.3798 67.0799 45.3593 67.0775 45.3363 67.0746C45.2907 67.0689 45.2315 67.0607 45.1627 67.049C45.0937 67.0373 45.0119 67.0216 44.9205 67.0004L46.774 59.015ZM36.2316 54.1645C39.9211 56.6195 42.5889 58.3236 46.5069 58.9623L45.1879 67.0532C39.3323 66.0985 35.3395 63.4175 31.6903 60.9893L36.2316 54.1645ZM36.1457 54.1073L36.2317 54.1646L31.6902 60.9892L31.6041 60.932L36.1457 54.1073ZM21.1229 47.4676C27.8911 48.571 32.5191 51.694 36.1457 54.1073L31.6041 60.932C27.9729 58.5156 24.652 56.3489 19.8039 55.5585L21.1229 47.4676ZM9.75623 46.8529C12.7547 46.8157 17.425 46.8648 21.1229 47.4676L19.8039 55.5585C16.8677 55.0798 12.8167 55.0132 9.85803 55.05L9.75623 46.8529ZM10.7339 46.9587C10.6095 46.9299 10.4943 46.9093 10.3908 46.8944C10.2873 46.8795 10.1928 46.8699 10.1092 46.8637C10.0255 46.8576 9.95 46.8546 9.88435 46.8533C9.81867 46.8521 9.76011 46.8526 9.71034 46.8537C9.66057 46.8549 9.617 46.8569 9.58136 46.8588C9.54575 46.8608 9.51551 46.8629 9.49266 46.8647C9.46995 46.8664 9.45166 46.868 9.4408 46.869C9.43523 46.8695 9.43072 46.8699 9.428 46.8702C9.42552 46.8704 9.42339 46.8706 9.42375 46.8706C9.42375 46.8706 9.42376 46.8706 9.42377 46.8706C9.42377 46.8706 9.4238 46.8706 9.42381 46.8706C9.42386 46.8706 9.42393 46.8706 9.42401 46.8705C9.42419 46.8705 9.42447 46.8705 9.42481 46.8705C9.42549 46.8704 9.42662 46.8703 9.42801 46.8702C9.43072 46.8699 9.43523 46.8695 9.44081 46.869C9.45167 46.868 9.46997 46.8664 9.49268 46.8647C9.51553 46.8629 9.54578 46.8608 9.58139 46.8588C9.61703 46.8569 9.6606 46.8549 9.71038 46.8537C9.76015 46.8526 9.81871 46.8521 9.88439 46.8533C9.95005 46.8546 10.0256 46.8576 10.1092 46.8637C10.1928 46.8699 10.2874 46.8795 10.3909 46.8944C10.4944 46.9093 10.6096 46.9299 10.7339 46.9587L8.88046 54.9441C9.00482 54.973 9.12001 54.9936 9.2235 55.0085C9.32698 55.0234 9.42156 55.033 9.50517 55.0391C9.58879 55.0453 9.66432 55.0483 9.72998 55.0496C9.79566 55.0508 9.85422 55.0503 9.90398 55.0491C9.95376 55.048 9.99733 55.046 10.033 55.0441C10.0686 55.0421 10.0988 55.04 10.1217 55.0382C10.1444 55.0364 10.1627 55.0348 10.1735 55.0339C10.1791 55.0334 10.1836 55.033 10.1863 55.0327C10.1888 55.0325 10.1909 55.0323 10.1906 55.0323C10.1906 55.0323 10.1906 55.0323 10.1906 55.0323C10.1906 55.0323 10.1905 55.0323 10.1905 55.0323C10.1905 55.0323 10.1904 55.0323 10.1903 55.0323C10.1901 55.0323 10.1899 55.0324 10.1895 55.0324C10.1888 55.0325 10.1877 55.0326 10.1863 55.0327C10.1836 55.033 10.1791 55.0334 10.1735 55.0339C10.1627 55.0348 10.1444 55.0364 10.1216 55.0382C10.0988 55.04 10.0686 55.0421 10.0329 55.0441C9.99729 55.046 9.95372 55.048 9.90394 55.0491C9.85418 55.0503 9.79562 55.0508 9.72993 55.0496C9.66427 55.0483 9.58873 55.0453 9.50511 55.0391C9.42151 55.033 9.32692 55.0234 9.22345 55.0085C9.11995 54.9936 9.00475 54.973 8.88038 54.9441L10.7339 46.9587ZM13.9057 50.9007L13.9311 52.9499L5.73406 53.0515L5.70868 51.0022L13.9057 50.9007ZM5.73406 53.0516L5.70861 51.0023L13.9056 50.9005L13.9311 52.9498L5.73406 53.0516ZM13.0172 50.9599C13.5144 48.8181 11.899 46.8266 9.75671 46.8529L9.85755 55.05C6.64766 55.0895 4.33458 52.1104 5.03182 49.1064L13.0172 50.9599ZM19.1545 24.5188L13.0172 50.9599L5.03182 49.1064L11.1691 22.6654L19.1545 24.5188ZM15.9151 27.2093C17.534 27.1196 18.8176 25.9699 19.1545 24.5188L11.1691 22.6654C11.6438 20.6199 13.3868 19.1392 15.4614 19.0242L15.9151 27.2093ZM26.1472 27.6277C23.3754 26.9843 18.8144 27.0487 15.915 27.2093L15.4615 19.0242C18.3062 18.8666 23.9525 18.7027 28.0006 19.6423L26.1472 27.6277Z" fill="white" mask="url(#path-1-outside-1_4359_164416)"></path><path d="M65.9912 37.2524C66.4126 35.4369 64.9329 33.7207 63.0702 33.7808C60.0971 33.8768 55.962 33.839 52.9213 33.1332C43.7488 31.0041 36.7098 23.7677 27.5373 21.6387C23.8086 20.7732 18.4342 20.9121 15.5751 21.0706C14.3992 21.1357 13.4316 21.9818 13.1654 23.1288L7.02818 49.5698C6.61726 51.3402 8.01521 53.0232 9.83259 53.0007C12.8015 52.9639 17.0072 53.0261 20.1337 53.5358C30.8745 55.2869 34.7768 63.2794 45.5176 65.0305C49.2505 65.6389 54.5223 65.6097 57.3901 65.5353C58.608 65.5038 59.6334 64.6439 59.9089 63.457L65.9912 37.2524Z" fill="#00E4AF"></path><path d="M34.6679 51.3458C30.2577 50.3222 27.5124 45.9171 28.536 41.5069C29.5597 37.0967 33.9647 34.3514 38.3749 35.375C42.7851 36.3987 45.5305 40.8037 44.5068 45.2139C43.4831 49.6241 39.0781 52.3695 34.6679 51.3458Z" fill="white" stroke="#020D1E" stroke-width="4.09884" stroke-linejoin="round"></path><path d="M51.8744 49.7292L51.8478 49.7231" stroke="#253D35" stroke-width="4.09884" stroke-linecap="round" stroke-linejoin="round"></path><path d="M21.1685 36.9917L21.1419 36.9855" stroke="#253D35" stroke-width="4.09884" stroke-linecap="round" stroke-linejoin="round"></path><path d="M32.7364 23.4108C31.0643 22.6742 29.342 22.0575 27.5373 21.6386C23.8086 20.7732 18.4342 20.912 15.5748 21.0705C14.3992 21.1357 13.4316 21.9817 13.1654 23.1287L7.02817 49.5698C6.61726 51.3402 8.0152 53.0232 9.83259 53.0007C12.8015 52.9638 17.0072 53.0261 20.1336 53.5357C30.8745 55.2868 34.7768 63.2794 45.5176 65.0304C49.2505 65.6388 54.5223 65.6096 57.3901 65.5353C58.608 65.5038 59.6334 64.6438 59.9089 63.4569L65.9912 37.2523C66.4126 35.4368 64.9329 33.7206 63.0702 33.7808C60.0971 33.8768 55.962 33.8389 52.9213 33.1331C51.1165 32.7142 49.3943 32.0976 47.7222 31.361M40.2284 27.3896L44.5532 8.75701M44.5532 8.75701L50.6851 18.5959M44.5532 8.75701L34.7144 14.8889" stroke="#020D1E" stroke-width="4.09884" stroke-linecap="round" stroke-linejoin="round"></path></svg>